<svg width="33" height="12" viewBox="0 0 33 12" fill="none" xmlns="http://www.w3.org/2000/svg">
<path d="M31.4056 0.50625C30.75 -0.1625 29.7278 -0.11875 29.0389 0.50625L23.9056 5.125C23.2778 5.69375 22.4944 6 21.6833 6H15.1111C14.6222 6 14.2222 5.55 14.2222 5C14.2222 4.45 14.6222 4 15.1111 4H19.4611C20.3444 4 21.1667 3.31875 21.3111 2.3375C21.4944 1.0875 20.6389 0 19.5556 0H10.6667C9.16667 0 7.71667 0.581249 6.55 1.64375L3.96667 4H0.888889C0.4 4 0 4.45 0 5V11C0 11.55 0.4 12 0.888889 12H20.7111C21.5167 12 22.3 11.6938 22.9333 11.125L31.3333 3.5625C32.1778 2.80625 32.2444 1.35625 31.4056 0.50625Z" fill="#338326"/>
</svg>
