<svg width="32" height="32" viewBox="0 0 32 32" fill="none" xmlns="http://www.w3.org/2000/svg">
<path d="M8.00002 2.66675C9.70106 2.66628 11.3699 3.1307 12.8261 4.00981C14.2824 4.88893 15.4707 6.14931 16.2627 7.65475C17.0628 6.52419 18.1225 5.60218 19.3529 4.96623C20.5833 4.33027 21.9483 3.99894 23.3334 4.00008H28V7.33342C28 9.63196 27.0869 11.8364 25.4616 13.4617C23.8363 15.087 21.6319 16.0001 19.3334 16.0001H17.3334V17.3334H24V26.6667C24 27.374 23.7191 28.0523 23.219 28.5524C22.7189 29.0525 22.0406 29.3334 21.3334 29.3334H10.6667C9.95944 29.3334 9.28117 29.0525 8.78107 28.5524C8.28097 28.0523 8.00002 27.374 8.00002 26.6667V17.3334H14.6667V14.6667H12C9.52467 14.6667 7.1507 13.6834 5.40036 11.9331C3.65002 10.1827 2.66669 7.80877 2.66669 5.33342V2.66675H8.00002ZM21.3334 20.0001H10.6667V26.6667H21.3334V20.0001ZM25.3334 6.66675H23.3334C21.7421 6.66675 20.2159 7.29889 19.0907 8.42411C17.9655 9.54933 17.3334 11.0754 17.3334 12.6667V13.3334H19.3334C20.1213 13.3334 20.9015 13.1782 21.6295 12.8767C22.3574 12.5752 23.0188 12.1332 23.576 11.5761C24.1331 11.0189 24.5751 10.3575 24.8766 9.62952C25.1782 8.90156 25.3334 8.12135 25.3334 7.33342V6.66675ZM8.00002 5.33342H5.33335C5.33335 7.10153 6.03573 8.79722 7.28598 10.0475C8.53622 11.2977 10.2319 12.0001 12 12.0001H14.6667C14.6667 10.232 13.9643 8.53628 12.7141 7.28604C11.4638 6.03579 9.76813 5.33342 8.00002 5.33342Z" fill="#338326"/>
</svg>
