<svg width="32" height="32" viewBox="0 0 32 32" fill="none" xmlns="http://www.w3.org/2000/svg">
<path d="M14.6987 15.3813L13.3334 13.3333L10.6667 17.3333H22.6667L18 10.6666L14.6987 15.3813Z" fill="#338326"/>
<path d="M12.6707 12.0001C13.7775 12.0001 14.6747 11.1028 14.6747 9.99607C14.6747 8.88929 13.7775 7.99207 12.6707 7.99207C11.5639 7.99207 10.6667 8.88929 10.6667 9.99607C10.6667 11.1028 11.5639 12.0001 12.6707 12.0001Z" fill="#338326"/>
<path d="M25.3333 2.66663H8C6.392 2.66663 4 3.73196 4 6.66663V25.3333C4 28.268 6.392 29.3333 8 29.3333H28V26.6666H8.016C7.4 26.6506 6.66667 26.408 6.66667 25.3333C6.66667 24.2586 7.4 24.016 8.016 24H28V5.33329C28 3.86263 26.804 2.66663 25.3333 2.66663ZM25.3333 21.3333H6.66667V6.66663C6.66667 5.59196 7.4 5.34929 8 5.33329H25.3333V21.3333Z" fill="#338326"/>
</svg>
