<svg width="32" height="32" viewBox="0 0 32 32" fill="none" xmlns="http://www.w3.org/2000/svg">
<path fill-rule="evenodd" clip-rule="evenodd" d="M26 3.55556H6C5.46957 3.55556 4.96086 3.74286 4.58579 4.07625C4.21071 4.40965 4 4.86184 4 5.33333V26.6667C4 27.1382 4.21071 27.5903 4.58579 27.9237C4.96086 28.2571 5.46957 28.4444 6 28.4444H26C26.5304 28.4444 27.0391 28.2571 27.4142 27.9237C27.7893 27.5903 28 27.1382 28 26.6667V5.33333C28 4.86184 27.7893 4.40965 27.4142 4.07625C27.0391 3.74286 26.5304 3.55556 26 3.55556ZM6 0C4.4087 0 2.88258 0.561903 1.75736 1.5621C0.632141 2.56229 0 3.91885 0 5.33333V26.6667C0 28.0812 0.632141 29.4377 1.75736 30.4379C2.88258 31.4381 4.4087 32 6 32H26C27.5913 32 29.1174 31.4381 30.2426 30.4379C31.3679 29.4377 32 28.0812 32 26.6667V5.33333C32 3.91885 31.3679 2.56229 30.2426 1.5621C29.1174 0.561903 27.5913 0 26 0H6Z" fill="#338326"/>
<path d="M8 7.11108H24V10.6666H8V7.11108Z" fill="#338326"/>
<path d="M8 14.2222H24V17.7777H8V14.2222Z" fill="#338326"/>
<path d="M8 21.3333H18V24.8888H8V21.3333Z" fill="#338326"/>
</svg>
