<svg width="24" height="32" viewBox="0 0 24 32" fill="none" xmlns="http://www.w3.org/2000/svg">
<path d="M22.5 12.4445H24V32H0V12.4445H1.5V8.8889C1.5 3.98223 4.86 8.0806e-06 9 8.0806e-06C10.065 8.0806e-06 11.085 0.266675 12 0.746675C12.9452 0.252678 13.967 -0.00165261 15 8.0806e-06C19.14 8.0806e-06 22.5 3.98223 22.5 8.8889V12.4445ZM4.5 8.8889V12.4445H7.5V8.8889C7.5 6.88001 8.085 5.0489 9.03 3.55556H9C6.525 3.55556 4.5 5.95556 4.5 8.8889ZM19.5 12.4445V8.8889C19.5 5.95556 17.475 3.55556 15 3.55556H14.97C15.9563 5.0885 16.4935 6.96111 16.5 8.8889V12.4445H19.5ZM12 4.94223C11.085 5.92001 10.5 7.32445 10.5 8.8889V12.4445H13.5V8.8889C13.5 7.32445 12.915 5.92001 12 4.94223Z" fill="#338326"/>
</svg>
