<svg width="32" height="32" viewBox="0 0 32 32" fill="none" xmlns="http://www.w3.org/2000/svg">
<path d="M14.4188 10.4291C16.1694 10.4291 17.6 9.30909 17.6 7.95636C17.6 7.30441 17.2648 6.67917 16.6683 6.21817C16.0717 5.75717 15.2625 5.49818 14.4188 5.49818C12.6494 5.49818 11.2188 6.60364 11.2188 7.95636C11.2188 9.30909 12.6494 10.4291 14.4188 10.4291ZM20.1412 27.5345L31.3035 25.8182L30.6635 23.3455L22.8518 24.5818L20.3106 14.6036L23.1718 15.4764V19.6364H26.3529V13.8764L18.0706 11.1564L16.8094 11.04C15.68 11.04 14.7388 11.5345 14.1176 12.2764L12.4988 14.24C11.2188 16 8.67765 17.1927 5.64706 17.1927V19.6364C9.14824 19.6364 12.3482 18.4291 14.4188 16.5818L15.36 20.2764L12.0282 22.7345V32H15.2094V24.5818L18.56 22.1236L20.1412 27.5345ZM0 32H3.76471V2.90909H28.2353V21.9782L32 21.3673V0H0V32ZM28.2353 32H32V27.3164L28.2353 27.9273V32Z" fill="#338326"/>
</svg>
